<svg width="41" height="37" viewBox="0 0 41 37" fill="none" xmlns="http://www.w3.org/2000/svg">
<path d="M30.75 35.8438H10.25C9.23057 35.8437 8.2529 35.4783 7.53206 34.8278C6.81122 34.1773 6.40625 33.295 6.40625 32.375V10.4062C6.40625 10.0996 6.54124 9.8055 6.78152 9.58866C7.0218 9.37182 7.34769 9.25 7.6875 9.25C8.02731 9.25 8.3532 9.37182 8.59348 9.58866C8.83376 9.8055 8.96875 10.0996 8.96875 10.4062V32.375C8.96875 32.6817 9.10374 32.9758 9.34402 33.1926C9.5843 33.4094 9.91019 33.5312 10.25 33.5312H30.75C31.0898 33.5312 31.4157 33.4094 31.656 33.1926C31.8963 32.9758 32.0312 32.6817 32.0312 32.375V10.4062C32.0312 10.0996 32.1662 9.8055 32.4065 9.58866C32.6468 9.37182 32.9727 9.25 33.3125 9.25C33.6523 9.25 33.9782 9.37182 34.2185 9.58866C34.4588 9.8055 34.5938 10.0996 34.5938 10.4062V32.375C34.5938 33.295 34.1888 34.1773 33.4679 34.8278C32.7471 35.4783 31.7694 35.8438 30.75 35.8438V35.8438Z" fill="#8F8E8E"/>
<path d="M35.875 8.09375H5.125C4.78519 8.09375 4.4593 7.97193 4.21902 7.75509C3.97874 7.53825 3.84375 7.24416 3.84375 6.9375C3.84375 6.63084 3.97874 6.33675 4.21902 6.11991C4.4593 5.90307 4.78519 5.78125 5.125 5.78125H35.875C36.2148 5.78125 36.5407 5.90307 36.781 6.11991C37.0213 6.33675 37.1562 6.63084 37.1562 6.9375C37.1562 7.24416 37.0213 7.53825 36.781 7.75509C36.5407 7.97193 36.2148 8.09375 35.875 8.09375Z" fill="#8F8E8E"/>
<path d="M25.625 8.09375C25.2852 8.09375 24.9593 7.97193 24.719 7.75509C24.4787 7.53825 24.3438 7.24416 24.3438 6.9375V3.46875H16.6562V6.9375C16.6562 7.24416 16.5213 7.53825 16.281 7.75509C16.0407 7.97193 15.7148 8.09375 15.375 8.09375C15.0352 8.09375 14.7093 7.97193 14.469 7.75509C14.2287 7.53825 14.0938 7.24416 14.0938 6.9375V2.3125C14.0938 2.00584 14.2287 1.71175 14.469 1.49491C14.7093 1.27807 15.0352 1.15625 15.375 1.15625H25.625C25.9648 1.15625 26.2907 1.27807 26.531 1.49491C26.7713 1.71175 26.9062 2.00584 26.9062 2.3125V6.9375C26.9062 7.24416 26.7713 7.53825 26.531 7.75509C26.2907 7.97193 25.9648 8.09375 25.625 8.09375Z" fill="#8F8E8E"/>
<path d="M20.5 30.0625C20.1602 30.0625 19.8343 29.9407 19.594 29.7238C19.3537 29.507 19.2188 29.2129 19.2188 28.9062V12.7188C19.2188 12.4121 19.3537 12.118 19.594 11.9012C19.8343 11.6843 20.1602 11.5625 20.5 11.5625C20.8398 11.5625 21.1657 11.6843 21.406 11.9012C21.6463 12.118 21.7812 12.4121 21.7812 12.7188V28.9062C21.7812 29.2129 21.6463 29.507 21.406 29.7238C21.1657 29.9407 20.8398 30.0625 20.5 30.0625Z" fill="#8F8E8E"/>
<path d="M26.9062 27.75C26.5664 27.75 26.2405 27.6282 26.0003 27.4113C25.76 27.1945 25.625 26.9004 25.625 26.5938V15.0312C25.625 14.7246 25.76 14.4305 26.0003 14.2137C26.2405 13.9968 26.5664 13.875 26.9062 13.875C27.2461 13.875 27.572 13.9968 27.8122 14.2137C28.0525 14.4305 28.1875 14.7246 28.1875 15.0312V26.5938C28.1875 26.9004 28.0525 27.1945 27.8122 27.4113C27.572 27.6282 27.2461 27.75 26.9062 27.75Z" fill="#8F8E8E"/>
<path d="M14.0938 27.75C13.7539 27.75 13.4281 27.6282 13.1878 27.4113C12.9475 27.1945 12.8125 26.9004 12.8125 26.5938V15.0312C12.8125 14.7246 12.9475 14.4305 13.1878 14.2137C13.4281 13.9968 13.7539 13.875 14.0938 13.875C14.4336 13.875 14.7594 13.9968 14.9997 14.2137C15.24 14.4305 15.375 14.7246 15.375 15.0312V26.5938C15.375 26.9004 15.24 27.1945 14.9997 27.4113C14.7594 27.6282 14.4336 27.75 14.0938 27.75Z" fill="#8F8E8E"/>
</svg>
