<svg width="127" height="39" viewBox="0 0 127 39" fill="none" xmlns="http://www.w3.org/2000/svg">
<path d="M2.12 18.992C2.12 18.992 2.096 18.976 2.048 18.944C2 18.928 1.936 18.912 1.856 18.896C1.792 18.88 1.712 18.872 1.616 18.872C1.36 18.808 1.176 18.664 1.064 18.44C0.952 18.232 0.928 18 0.992 17.744C1.056 17.68 1.104 17.544 1.136 17.336C1.168 17.128 1.184 16.96 1.184 16.832C1.248 16.704 1.288 16.616 1.304 16.568C1.32 16.504 1.36 16.344 1.424 16.088C1.472 15.816 1.552 15.44 1.664 14.96C1.792 14.464 1.928 13.936 2.072 13.376C2.232 12.816 2.384 12.28 2.528 11.768C2.672 11.256 2.8 10.824 2.912 10.472C3.04 10.12 3.128 9.92 3.176 9.872C3.176 9.872 3.176 9.848 3.176 9.8C3.176 9.736 3.176 9.672 3.176 9.608C3.176 9.608 3.184 9.536 3.2 9.392C3.232 9.232 3.312 9.056 3.44 8.864C3.504 8.688 3.56 8.496 3.608 8.288C3.656 8.08 3.68 7.944 3.68 7.88C3.744 7.8 3.832 7.608 3.944 7.304C4.072 6.984 4.192 6.672 4.304 6.368C4.4 6.112 4.504 5.84 4.616 5.552C4.744 5.264 4.848 5.016 4.928 4.808C5.024 4.6 5.072 4.496 5.072 4.496C5.072 4.432 5.072 4.4 5.072 4.4C5.072 4.384 5.072 4.376 5.072 4.376C5.136 4.312 5.288 3.992 5.528 3.416C5.784 2.824 6.128 2.064 6.56 1.136C6.624 1.008 6.704 0.863999 6.8 0.704C6.896 0.544 6.944 0.432 6.944 0.368C7.024 0.239999 7.136 0.183999 7.28 0.199999C7.424 0.199999 7.568 0.247999 7.712 0.344C7.872 0.44 7.992 0.575999 8.072 0.751999L8.312 1.136L7.448 2.864C7.192 3.312 6.976 3.72 6.8 4.088C6.64 4.456 6.56 4.672 6.56 4.736C6.56 4.736 6.512 4.864 6.416 5.12C6.32 5.376 6.208 5.68 6.08 6.032C5.952 6.384 5.84 6.704 5.744 6.992C5.568 7.488 5.4 7.896 5.24 8.216C5.096 8.536 5.024 8.728 5.024 8.792C5.024 8.76 5.2 8.736 5.552 8.72C5.904 8.704 6.352 8.696 6.896 8.696C7.44 8.696 7.992 8.696 8.552 8.696C9.128 8.68 9.632 8.672 10.064 8.672C10.512 8.656 10.816 8.632 10.976 8.6L12.224 8.48L13.04 6.008C13.168 5.56 13.336 5.016 13.544 4.376C13.752 3.736 13.936 3.192 14.096 2.744C14.352 2.008 14.552 1.552 14.696 1.376C14.84 1.2 15.008 1.112 15.2 1.112C15.248 1.112 15.312 1.128 15.392 1.16C15.488 1.176 15.576 1.216 15.656 1.28C15.752 1.328 15.816 1.4 15.848 1.496C16.04 1.672 16.128 1.872 16.112 2.096C16.112 2.32 15.984 2.616 15.728 2.984C15.472 3.416 15.256 3.888 15.08 4.4C14.92 4.896 14.776 5.304 14.648 5.624C14.648 5.816 14.624 5.976 14.576 6.104C14.528 6.216 14.472 6.304 14.408 6.368C14.376 6.4 14.312 6.52 14.216 6.728C14.12 6.936 14.032 7.144 13.952 7.352C13.872 7.56 13.832 7.688 13.832 7.736C13.832 7.848 13.808 7.984 13.76 8.144C13.712 8.304 13.656 8.416 13.592 8.48C13.56 8.576 13.488 8.816 13.376 9.2C13.264 9.584 13.136 10.04 12.992 10.568C12.848 11.08 12.696 11.584 12.536 12.08C12.376 12.56 12.232 12.96 12.104 13.28C12.104 13.392 12.064 13.536 11.984 13.712C11.904 13.872 11.864 14.016 11.864 14.144C11.8 14.336 11.72 14.576 11.624 14.864C11.528 15.152 11.48 15.336 11.48 15.416C11.4 15.784 11.312 16.16 11.216 16.544C11.136 16.928 11.064 17.256 11 17.528C10.952 17.816 10.928 17.984 10.928 18.032C10.864 18.096 10.768 18.104 10.64 18.056C10.512 18.008 10.36 17.952 10.184 17.888C9.88 17.712 9.696 17.52 9.632 17.312C9.584 17.12 9.648 16.84 9.824 16.472C9.904 16.344 10 16.032 10.112 15.536C10.24 15.024 10.368 14.52 10.496 14.024C10.592 13.784 10.696 13.464 10.808 13.064C10.92 12.648 11.032 12.232 11.144 11.816C11.256 11.384 11.352 11.024 11.432 10.736C11.512 10.432 11.568 10.264 11.6 10.232C11.6 10.168 11.6 10.112 11.6 10.064C11.6 10.016 11.6 9.992 11.6 9.992C11.568 9.96 11.368 9.936 11 9.92C10.632 9.888 10.176 9.88 9.632 9.896C9.088 9.896 8.52 9.912 7.928 9.944C7.352 9.96 6.832 10 6.368 10.064C6.192 10.064 5.992 10.064 5.768 10.064C5.544 10.064 5.368 10.064 5.24 10.064C5.064 10.064 4.912 10.064 4.784 10.064C4.672 10.064 4.616 10.064 4.616 10.064C4.6 10.112 4.544 10.28 4.448 10.568C4.352 10.856 4.24 11.208 4.112 11.624C3.984 12.024 3.848 12.44 3.704 12.872C3.576 13.288 3.464 13.672 3.368 14.024C3.288 14.36 3.232 14.6 3.2 14.744C3.136 15.032 3.048 15.392 2.936 15.824C2.84 16.256 2.728 16.696 2.6 17.144C2.488 17.608 2.384 18.008 2.288 18.344C2.208 18.68 2.152 18.896 2.12 18.992ZM15.0914 16.136C15.0274 16.008 14.9474 15.912 14.8514 15.848C14.7554 15.768 14.7074 15.696 14.7074 15.632C14.7074 15.568 14.6994 15.504 14.6834 15.44C14.6834 15.36 14.6514 15.288 14.5874 15.224C14.5074 15.128 14.5154 14.912 14.6114 14.576C14.7074 14.224 14.8674 13.8 15.0914 13.304C15.3154 12.792 15.5794 12.256 15.8834 11.696C16.0114 11.568 16.1394 11.4 16.2674 11.192C16.3954 10.984 16.4914 10.848 16.5554 10.784C16.5554 10.72 16.5794 10.664 16.6274 10.616C16.6754 10.552 16.7314 10.52 16.7954 10.52V10.376C16.7954 10.296 16.8674 10.16 17.0114 9.968C17.1714 9.776 17.3634 9.568 17.5874 9.344C17.8114 9.104 18.0434 8.88 18.2834 8.672C18.5234 8.448 18.7234 8.288 18.8834 8.192C19.2194 7.968 19.5634 7.832 19.9154 7.784C20.2834 7.736 20.5954 7.816 20.8514 8.024C20.8994 8.072 20.9794 8.152 21.0914 8.264C21.2034 8.376 21.3314 8.504 21.4754 8.648C21.6354 8.776 21.7954 8.912 21.9554 9.056L22.8434 9.848L22.4114 11.048C22.2034 11.688 22.1474 12.248 22.2434 12.728C22.3554 13.208 22.5154 13.624 22.7234 13.976C22.8034 14.152 22.9634 14.32 23.2034 14.48C23.4594 14.64 23.6994 14.736 23.9234 14.768C24.0514 14.784 24.1714 14.832 24.2834 14.912C24.3954 14.992 24.4514 15.12 24.4514 15.296C24.4514 15.456 24.4194 15.584 24.3554 15.68C24.2914 15.776 24.1794 15.84 24.0194 15.872C23.4914 15.936 22.9954 15.808 22.5314 15.488C22.0834 15.168 21.6674 14.64 21.2834 13.904C21.2194 13.808 21.1314 13.632 21.0194 13.376C20.9234 13.104 20.8674 12.928 20.8514 12.848C20.7874 12.928 20.6674 13.08 20.4914 13.304C20.3154 13.512 20.1794 13.664 20.0834 13.76C18.9474 14.912 17.9634 15.688 17.1314 16.088C16.3154 16.472 15.6354 16.488 15.0914 16.136ZM15.9554 14.792C15.9554 14.904 16.1234 14.904 16.4594 14.792C16.8114 14.664 17.1874 14.44 17.5874 14.12C18.1314 13.656 18.6754 13.144 19.2194 12.584C19.7794 12.024 20.2274 11.504 20.5634 11.024L21.0914 10.16C20.9314 9.792 20.7554 9.544 20.5634 9.416C20.3874 9.272 20.2354 9.2 20.1074 9.2C19.8994 9.2 19.5874 9.392 19.1714 9.776C18.7714 10.16 18.3394 10.672 17.8754 11.312C17.4114 11.952 16.9714 12.656 16.5554 13.424C16.3954 13.744 16.2514 14.056 16.1234 14.36C16.0114 14.648 15.9554 14.792 15.9554 14.792ZM33.896 15.896C33.576 15.896 33.312 15.832 33.104 15.704C32.896 15.56 32.72 15.328 32.576 15.008C32.512 14.784 32.456 14.536 32.408 14.264C32.376 13.976 32.36 13.712 32.36 13.472C32.36 13.216 32.384 13.048 32.432 12.968C32.496 12.904 32.52 12.792 32.504 12.632C32.504 12.456 32.504 12.272 32.504 12.08C32.488 11.76 32.408 11.584 32.264 11.552C32.136 11.504 31.944 11.552 31.688 11.696C31.4 11.872 31.024 12.112 30.56 12.416C30.096 12.704 29.608 13.024 29.096 13.376C28.6 13.728 28.128 14.096 27.68 14.48C27.328 14.864 27.112 15.16 27.032 15.368C26.968 15.56 26.872 15.656 26.744 15.656C26.616 15.72 26.504 15.728 26.408 15.68C26.328 15.616 26.208 15.52 26.048 15.392C25.936 15.264 25.824 15.144 25.712 15.032C25.6 14.904 25.528 14.808 25.496 14.744C25.496 14.664 25.52 14.496 25.568 14.24C25.616 13.984 25.672 13.728 25.736 13.472C25.816 13.216 25.872 13.048 25.904 12.968C25.984 12.968 26.048 12.888 26.096 12.728C26.16 12.568 26.256 12.392 26.384 12.2C26.416 12.008 26.496 11.752 26.624 11.432C26.768 11.096 26.896 10.8 27.008 10.544C27.232 10.16 27.384 9.84 27.464 9.584C27.56 9.328 27.624 9.008 27.656 8.624C27.64 8.56 27.656 8.504 27.704 8.456C27.752 8.392 27.808 8.36 27.872 8.36C28 8.232 28.152 8.2 28.328 8.264C28.504 8.312 28.664 8.432 28.808 8.624C29.096 9.008 29.208 9.408 29.144 9.824C29.096 10.224 28.84 10.8 28.376 11.552C28.264 11.808 28.176 12.008 28.112 12.152C28.064 12.28 28.04 12.384 28.04 12.464C28.04 12.464 28.12 12.408 28.28 12.296C28.456 12.184 28.648 12.056 28.856 11.912C29.08 11.752 29.256 11.632 29.384 11.552C29.464 11.472 29.648 11.328 29.936 11.12C30.224 10.912 30.528 10.712 30.848 10.52C31.184 10.312 31.432 10.192 31.592 10.16C31.72 10.096 31.856 10.04 32 9.992C32.144 9.928 32.248 9.896 32.312 9.896C32.44 9.896 32.6 9.968 32.792 10.112C33 10.24 33.192 10.4 33.368 10.592C33.544 10.768 33.648 10.92 33.68 11.048C33.68 11.112 33.68 11.176 33.68 11.24C33.696 11.304 33.712 11.368 33.728 11.432C33.792 11.64 33.824 11.92 33.824 12.272C33.84 12.624 33.832 12.944 33.8 13.232C33.768 13.52 33.712 13.688 33.632 13.736C33.632 13.736 33.632 13.76 33.632 13.808C33.648 13.84 33.688 13.856 33.752 13.856C33.752 13.92 33.752 13.96 33.752 13.976C33.672 13.976 33.64 14.048 33.656 14.192C33.672 14.32 33.72 14.464 33.8 14.624C33.896 14.784 33.992 14.912 34.088 15.008C34.28 15.2 34.36 15.384 34.328 15.56C34.296 15.72 34.152 15.832 33.896 15.896ZM42.3487 16.76C42.2847 16.76 42.1887 16.752 42.0607 16.736C41.9487 16.704 41.8527 16.632 41.7727 16.52C41.5327 16.232 41.3807 15.992 41.3167 15.8C41.2527 15.608 41.2447 15.328 41.2927 14.96C41.3247 14.72 41.3407 14.512 41.3407 14.336C41.3567 14.144 41.3727 13.984 41.3887 13.856C41.3247 13.792 41.2047 13.84 41.0287 14C40.8687 14.144 40.6447 14.328 40.3567 14.552C39.8127 15.176 39.3247 15.656 38.8927 15.992C38.4767 16.312 38.1007 16.528 37.7647 16.64C37.4287 16.736 37.1087 16.768 36.8047 16.736C36.5327 16.704 36.3167 16.592 36.1567 16.4C35.9967 16.192 35.8927 15.928 35.8447 15.608C35.8127 15.288 35.8127 14.944 35.8447 14.576C35.9087 14.048 36.0207 13.544 36.1807 13.064C36.3567 12.584 36.6367 12.048 37.0207 11.456C37.1967 11.136 37.4287 10.824 37.7167 10.52C38.0207 10.2 38.3487 9.92 38.7007 9.68C39.0687 9.424 39.4207 9.24 39.7567 9.128C40.1247 8.984 40.5007 8.904 40.8847 8.888C41.2687 8.856 41.6127 8.888 41.9167 8.984C42.1087 9.08 42.2607 9.128 42.3727 9.128C42.5007 9.128 42.5967 9.048 42.6607 8.888C42.7407 8.76 42.8207 8.568 42.9007 8.312C42.9807 8.04 43.0767 7.808 43.1887 7.616L43.7167 6.056C43.8927 5.624 44.0847 5.168 44.2927 4.688C44.5007 4.208 44.7487 3.624 45.0367 2.936C45.3087 2.424 45.5327 2.128 45.7087 2.048C45.8847 1.952 46.0847 2.016 46.3087 2.24C46.4847 2.448 46.5487 2.688 46.5007 2.96C46.4527 3.216 46.3087 3.632 46.0687 4.208C45.9567 4.384 45.8607 4.552 45.7807 4.712C45.7007 4.856 45.5887 5.088 45.4447 5.408C45.2367 5.904 45.0447 6.352 44.8687 6.752C44.6927 7.136 44.5087 7.576 44.3167 8.072C44.2527 8.328 44.1647 8.624 44.0527 8.96C43.9567 9.296 43.8767 9.6 43.8127 9.872C43.7647 10.128 43.7087 10.368 43.6447 10.592C43.5967 10.8 43.5407 10.904 43.4767 10.904C43.3487 11.048 43.2287 11.304 43.1167 11.672C43.0047 12.024 42.9087 12.392 42.8287 12.776C42.7647 13.16 42.7087 13.48 42.6607 13.736C42.6287 13.928 42.6047 14.176 42.5887 14.48C42.5727 14.784 42.5647 15.08 42.5647 15.368C42.5647 15.64 42.5647 15.832 42.5647 15.944C42.5647 16.296 42.5567 16.52 42.5407 16.616C42.5247 16.712 42.4607 16.76 42.3487 16.76ZM37.2367 15.248C37.5727 15.248 37.9247 15.104 38.2927 14.816C38.6767 14.528 39.0607 14.208 39.4447 13.856C39.6847 13.632 39.9407 13.336 40.2127 12.968C40.5007 12.6 40.7727 12.232 41.0287 11.864C41.3007 11.496 41.5167 11.176 41.6767 10.904C41.8367 10.616 41.9167 10.44 41.9167 10.376C41.9167 10.296 41.8447 10.24 41.7007 10.208C41.5567 10.176 41.3887 10.16 41.1967 10.16C41.0207 10.144 40.8767 10.152 40.7647 10.184C40.4127 10.264 40.0607 10.424 39.7087 10.664C39.3727 10.904 39.0047 11.264 38.6047 11.744C38.1887 12.256 37.8447 12.784 37.5727 13.328C37.3167 13.872 37.1567 14.328 37.0927 14.696C37.0287 15.064 37.0767 15.248 37.2367 15.248ZM47.4986 12.728C47.4026 12.728 47.2826 12.728 47.1386 12.728C46.9946 12.712 46.8346 12.672 46.6586 12.608C46.4186 12.608 46.2586 12.584 46.1786 12.536C46.0986 12.472 46.0266 12.384 45.9626 12.272C45.7866 12.032 45.7706 11.872 45.9146 11.792C46.0586 11.696 46.4266 11.616 47.0186 11.552C47.5626 11.424 48.0666 11.336 48.5306 11.288C48.9946 11.24 49.5466 11.216 50.1866 11.216C50.6026 11.216 50.8826 11.232 51.0266 11.264C51.1706 11.296 51.3306 11.4 51.5066 11.576C51.7466 11.816 51.8346 12.048 51.7706 12.272C51.7066 12.48 51.4906 12.552 51.1226 12.488C51.0106 12.504 50.8026 12.52 50.4986 12.536C50.1946 12.552 49.8986 12.576 49.6106 12.608C49.4346 12.624 49.1546 12.648 48.7706 12.68C48.3866 12.712 47.9626 12.728 47.4986 12.728ZM55.3027 15.92C55.0627 15.92 54.8387 15.776 54.6307 15.488C54.4387 15.184 54.2947 14.8 54.1987 14.336C54.1187 13.856 54.0947 13.36 54.1267 12.848C54.1267 12.336 54.1507 11.928 54.1987 11.624C54.2627 11.304 54.3267 10.992 54.3907 10.688C54.4387 10.592 54.4627 10.512 54.4627 10.448C54.4787 10.384 54.4947 10.28 54.5107 10.136C54.5427 9.992 54.5987 9.752 54.6787 9.416C54.7427 9.144 54.8067 8.92 54.8707 8.744C54.9347 8.568 54.9987 8.448 55.0627 8.384C55.1427 8.288 55.2467 8.232 55.3747 8.216C55.5027 8.184 55.6307 8.192 55.7587 8.24C55.8867 8.288 55.9907 8.376 56.0707 8.504C56.1667 8.584 56.2147 8.768 56.2147 9.056C56.2307 9.328 56.2147 9.616 56.1667 9.92C56.1187 10.208 56.0467 10.416 55.9507 10.544C55.9187 10.624 55.8787 10.832 55.8307 11.168C55.7987 11.504 55.7587 11.856 55.7107 12.224C55.6787 12.592 55.6387 12.888 55.5907 13.112C55.5427 13.4 55.5667 13.632 55.6627 13.808C55.7747 13.984 55.9747 13.992 56.2627 13.832C56.5667 13.656 56.9667 13.208 57.4627 12.488C57.7987 12.008 58.0547 11.616 58.2307 11.312C58.4067 11.008 58.5427 10.728 58.6387 10.472C58.7507 10.2 58.8627 9.912 58.9747 9.608C59.0547 9.352 59.1267 9.144 59.1907 8.984C59.2707 8.808 59.3427 8.696 59.4067 8.648C59.5187 8.568 59.6467 8.536 59.7907 8.552C59.9507 8.568 60.1267 8.64 60.3187 8.768C60.5107 8.96 60.6067 9.192 60.6067 9.464C60.6067 9.72 60.5107 10.04 60.3187 10.424C60.1907 10.68 60.0627 11.008 59.9347 11.408C59.8227 11.808 59.7267 12.216 59.6467 12.632C59.5827 13.032 59.5507 13.36 59.5507 13.616C59.5507 13.936 59.5907 14.128 59.6707 14.192C59.7667 14.24 59.8787 14.264 60.0067 14.264C60.1987 14.264 60.4307 14.192 60.7027 14.048C60.9747 13.904 61.2787 13.656 61.6147 13.304C61.7587 13.16 61.9347 12.952 62.1427 12.68C62.3507 12.392 62.5507 12.096 62.7427 11.792C62.9507 11.472 63.1187 11.192 63.2467 10.952C63.3907 10.712 63.4627 10.56 63.4627 10.496C63.4627 10.4 63.5347 10.264 63.6787 10.088C63.7747 9.96 63.8467 9.864 63.8947 9.8C63.9587 9.72 64.0707 9.64 64.2307 9.56C64.3587 9.496 64.4707 9.488 64.5667 9.536C64.6627 9.568 64.7667 9.648 64.8787 9.776C64.9587 9.84 64.9987 9.936 64.9987 10.064C65.0147 10.192 65.0227 10.352 65.0227 10.544C64.9747 10.72 64.8947 10.952 64.7827 11.24C64.6867 11.512 64.5747 11.776 64.4467 12.032C64.3347 12.272 64.2387 12.44 64.1587 12.536C64.0947 12.6 63.9827 12.72 63.8227 12.896C63.6627 13.056 63.5187 13.232 63.3907 13.424C62.9907 13.904 62.7027 14.216 62.5267 14.36C62.3507 14.504 62.1987 14.64 62.0707 14.768C61.7347 15.104 61.3827 15.36 61.0147 15.536C60.6467 15.696 60.2947 15.776 59.9587 15.776C59.6387 15.776 59.3667 15.696 59.1427 15.536C58.6467 15.28 58.3987 14.848 58.3987 14.24C58.3987 14.112 58.3747 14 58.3267 13.904C58.2947 13.792 58.2787 13.736 58.2787 13.736C58.2147 13.736 58.1267 13.752 58.0147 13.784C57.9187 13.816 57.8147 13.928 57.7027 14.12C57.5587 14.392 57.3267 14.672 57.0067 14.96C56.7027 15.232 56.3907 15.464 56.0707 15.656C55.7507 15.832 55.4947 15.92 55.3027 15.92ZM67.3171 16.256C67.2691 16.272 67.1891 16.264 67.0771 16.232C66.9651 16.2 66.8531 16.16 66.7411 16.112C66.6291 16.064 66.5571 16.024 66.5251 15.992C66.4611 15.928 66.3971 15.832 66.3331 15.704C66.2851 15.576 66.2851 15.392 66.3331 15.152C66.3811 14.896 66.5411 14.568 66.8131 14.168C66.8931 14.008 66.9891 13.768 67.1011 13.448C67.2131 13.128 67.3251 12.792 67.4371 12.44C67.5651 12.072 67.6771 11.744 67.7731 11.456C67.8851 11.168 67.9651 10.968 68.0131 10.856C68.0451 10.584 68.0291 10.392 67.9651 10.28C67.9171 10.152 67.7811 10.08 67.5571 10.064C67.3971 10.064 67.2691 10.048 67.1731 10.016C67.0931 9.984 67.0531 9.824 67.0531 9.536C67.0851 9.312 67.1411 9.16 67.2211 9.08C67.3171 8.984 67.4451 8.88 67.6051 8.768C67.7651 8.688 67.9251 8.632 68.0851 8.6C68.2611 8.568 68.4291 8.56 68.5891 8.576C68.7491 8.592 68.8771 8.648 68.9731 8.744C69.0851 8.808 69.1571 8.952 69.1891 9.176C69.2211 9.384 69.2371 9.6 69.2371 9.824C69.2531 10.048 69.2691 10.216 69.2851 10.328C69.4451 10.2 69.6611 10.024 69.9331 9.8C70.2211 9.56 70.4691 9.336 70.6771 9.128C70.9331 8.952 71.2371 8.776 71.5891 8.6C71.9411 8.408 72.1971 8.312 72.3571 8.312C72.5331 8.312 72.7091 8.36 72.8851 8.456C73.0611 8.536 73.1811 8.64 73.2451 8.768C73.4051 9.04 73.4771 9.28 73.4611 9.488C73.4611 9.696 73.3731 9.912 73.1971 10.136C73.0371 10.344 72.8371 10.488 72.5971 10.568C72.3731 10.648 72.2291 10.688 72.1651 10.688C72.0691 10.688 71.9491 10.616 71.8051 10.472C71.6611 10.328 71.5811 10.208 71.5651 10.112C71.5651 10.064 71.4611 10.112 71.2531 10.256C71.0611 10.384 70.8451 10.552 70.6051 10.76C70.3651 10.952 70.1651 11.128 70.0051 11.288C69.7331 11.624 69.4451 12.08 69.1411 12.656C68.8371 13.232 68.4771 13.928 68.0611 14.744C67.8691 15.144 67.7331 15.488 67.6531 15.776C67.5731 16.048 67.4611 16.208 67.3171 16.256ZM74.7656 16.232C74.6376 16.104 74.5416 15.944 74.4776 15.752C74.4296 15.56 74.4136 15.368 74.4296 15.176C74.4456 14.984 74.4856 14.824 74.5496 14.696C74.5496 14.568 74.5656 14.472 74.5976 14.408C74.6456 14.328 74.6616 14.256 74.6456 14.192C74.6296 14.128 74.6456 14.016 74.6936 13.856C74.7416 13.696 74.7896 13.544 74.8376 13.4C74.9496 13.144 75.0696 12.84 75.1976 12.488C75.3256 12.12 75.4456 11.76 75.5576 11.408C75.6696 11.056 75.7656 10.752 75.8456 10.496C75.9256 10.24 75.9736 10.08 75.9896 10.016C75.9896 9.824 76.1176 9.72 76.3736 9.704C76.5656 9.64 76.7096 9.64 76.8056 9.704C76.9016 9.752 77.0296 9.904 77.1896 10.16C77.3176 10.288 77.3656 10.48 77.3336 10.736C77.3016 10.992 77.1976 11.312 77.0216 11.696C76.9576 11.824 76.8776 12.008 76.7816 12.248C76.7016 12.488 76.6456 12.704 76.6136 12.896C76.5496 13.024 76.4696 13.208 76.3736 13.448C76.2936 13.672 76.2216 13.888 76.1576 14.096C76.1256 14.176 76.0936 14.296 76.0616 14.456C76.0296 14.6 75.9896 14.76 75.9416 14.936C75.8936 15.096 75.8296 15.24 75.7496 15.368C75.6056 16.024 75.4696 16.408 75.3416 16.52C75.2296 16.632 75.0376 16.536 74.7656 16.232ZM77.0936 6.488C77.0136 6.408 76.9416 6.296 76.8776 6.152C76.8136 5.992 76.7736 5.848 76.7576 5.72C76.7416 5.576 76.7576 5.504 76.8056 5.504C76.9336 5.488 77.0856 5.352 77.2616 5.096C77.4376 4.84 77.5096 4.616 77.4776 4.424C77.4776 4.36 77.5016 4.304 77.5496 4.256C77.5976 4.192 77.6536 4.152 77.7176 4.136C77.9096 4.008 78.0936 3.992 78.2696 4.088C78.4616 4.168 78.6376 4.336 78.7976 4.592C78.9416 4.896 78.9816 5.152 78.9176 5.36C78.8536 5.552 78.6776 5.824 78.3896 6.176C78.1496 6.496 77.9256 6.672 77.7176 6.704C77.5256 6.736 77.3176 6.664 77.0936 6.488ZM81.1381 18.2C80.6101 18.12 80.2501 17.92 80.0581 17.6C79.8821 17.296 79.8421 16.824 79.9381 16.184C80.0341 15.88 80.0901 15.608 80.1061 15.368C80.1381 15.112 80.2101 14.952 80.3221 14.888C80.3221 14.888 80.3301 14.864 80.3461 14.816C80.3781 14.768 80.3701 14.72 80.3221 14.672C80.3221 14.464 80.3941 14.176 80.5381 13.808C80.5701 13.712 80.6101 13.6 80.6581 13.472C80.7221 13.328 80.7541 13.256 80.7541 13.256C80.6741 13.128 80.6741 13.024 80.7541 12.944C80.8341 12.864 80.9141 12.792 80.9941 12.728C81.0901 12.648 81.0981 12.56 81.0181 12.464C80.9861 12.4 81.0261 12.256 81.1381 12.032C81.2501 11.792 81.3781 11.544 81.5221 11.288C81.6661 11.032 81.7621 10.832 81.8101 10.688C81.8101 10.656 81.8501 10.544 81.9301 10.352C82.0101 10.16 82.1061 9.936 82.2181 9.68C82.3301 9.424 82.4341 9.192 82.5301 8.984C82.6421 8.776 82.7141 8.64 82.7461 8.576C82.9061 8.496 82.8421 8.44 82.5541 8.408C82.2661 8.376 81.9621 8.368 81.6421 8.384C81.1461 8.368 80.7461 8.344 80.4421 8.312C80.1541 8.28 79.9141 8.208 79.7221 8.096C79.5301 7.872 79.4581 7.712 79.5061 7.616C79.5701 7.504 79.7621 7.44 80.0821 7.424C80.2901 7.408 80.4501 7.4 80.5621 7.4C80.6901 7.4 80.8501 7.392 81.0421 7.376C81.2501 7.344 81.5701 7.304 82.0021 7.256L83.2261 7.16L83.2981 6.752C83.4261 6.544 83.5301 6.36 83.6101 6.2C83.7061 6.024 83.7861 5.848 83.8501 5.672C83.9141 5.496 83.9621 5.312 83.9941 5.12C83.9941 5.12 84.0661 4.992 84.2101 4.736C84.3541 4.464 84.4421 4.184 84.4741 3.896C84.6661 3.576 84.8341 3.288 84.9781 3.032C85.1221 2.76 85.2101 2.592 85.2421 2.528C85.4181 2.384 85.5381 2.312 85.6021 2.312C85.6821 2.312 85.8421 2.392 86.0821 2.552C86.2261 2.632 86.3541 2.728 86.4661 2.84C86.5781 2.952 86.6501 3.072 86.6821 3.2C86.7141 3.312 86.6661 3.424 86.5381 3.536C86.5061 3.6 86.4581 3.72 86.3941 3.896C86.3301 4.056 86.2821 4.192 86.2501 4.304C86.1541 4.416 86.0341 4.6 85.8901 4.856C85.7621 5.096 85.6741 5.344 85.6261 5.6C85.4981 5.872 85.3781 6.12 85.2661 6.344C85.1541 6.552 85.0661 6.656 85.0021 6.656C85.0341 6.816 85.1301 6.896 85.2901 6.896C85.4501 6.88 85.7141 6.864 86.0821 6.848C86.3861 6.816 86.5941 6.784 86.7061 6.752C86.8341 6.704 86.9781 6.72 87.1381 6.8C87.2181 6.912 87.2821 7.04 87.3301 7.184C87.3781 7.328 87.3861 7.464 87.3541 7.592C87.3381 7.704 87.2741 7.784 87.1621 7.832C87.0821 7.832 86.9141 7.88 86.6581 7.976C86.4181 8.056 86.1141 8.104 85.7461 8.12L84.4741 8.24L84.0661 9.056C83.9541 9.264 83.8581 9.456 83.7781 9.632C83.6981 9.792 83.6421 9.888 83.6101 9.92C83.6101 10.016 83.5541 10.16 83.4421 10.352C83.3461 10.544 83.2421 10.752 83.1301 10.976C83.0341 11.248 82.9221 11.496 82.7941 11.72C82.6821 11.944 82.6261 12.056 82.6261 12.056C82.5621 12.056 82.5301 12.104 82.5301 12.2C82.6101 12.392 82.5861 12.536 82.4581 12.632C82.3781 12.68 82.3061 12.752 82.2421 12.848C82.1941 12.928 82.1701 12.968 82.1701 12.968C82.2341 13.032 82.2421 13.112 82.1941 13.208C82.1621 13.304 82.1141 13.408 82.0501 13.52C82.0501 13.648 82.0101 13.832 81.9301 14.072C81.8661 14.312 81.7941 14.536 81.7141 14.744C81.7301 15.032 81.7461 15.216 81.7621 15.296C81.7781 15.376 81.8181 15.408 81.8821 15.392C81.9621 15.408 82.0341 15.408 82.0981 15.392C82.1621 15.376 82.2261 15.368 82.2901 15.368C82.5141 15.272 82.3941 15.832 81.9301 17.048C81.6741 17.448 81.4981 17.736 81.4021 17.912C81.3061 18.104 81.2181 18.2 81.1381 18.2ZM88.8194 16.832C88.6434 16.8 88.4594 16.712 88.2674 16.568C88.0914 16.408 87.9314 16.232 87.7874 16.04C87.6594 15.832 87.5714 15.648 87.5234 15.488C87.5234 15.456 87.4994 15.416 87.4514 15.368C87.4194 15.32 87.4034 15.296 87.4034 15.296C87.3394 15.248 87.2994 15.04 87.2834 14.672C87.2834 14.288 87.3074 13.864 87.3554 13.4C87.4034 12.936 87.4594 12.568 87.5234 12.296C87.6034 12.04 87.7234 11.696 87.8834 11.264C88.0434 10.816 88.1794 10.416 88.2914 10.064L88.9394 8.672L87.9794 8.408C87.8674 8.376 87.7714 8.312 87.6914 8.216C87.6274 8.12 87.5954 8.04 87.5954 7.976C87.5954 7.848 87.6674 7.696 87.8114 7.52C87.9554 7.328 88.0594 7.232 88.1234 7.232C88.2034 7.248 88.3474 7.256 88.5554 7.256C88.7794 7.256 88.9954 7.248 89.2034 7.232C89.4114 7.216 89.5394 7.2 89.5874 7.184C89.6514 7.152 89.7154 7.112 89.7794 7.064C89.8434 7 89.8914 6.912 89.9234 6.8C90.0034 6.624 90.0754 6.464 90.1394 6.32C90.2034 6.16 90.2914 5.984 90.4034 5.792C90.5154 5.584 90.6034 5.408 90.6674 5.264C90.7474 5.12 90.8674 4.92 91.0274 4.664C91.1074 4.552 91.1954 4.416 91.2914 4.256C91.3874 4.096 91.5074 3.96 91.6514 3.848C91.7954 3.72 91.9394 3.664 92.0834 3.68C92.2434 3.68 92.4434 3.784 92.6834 3.992C92.8114 4.152 92.8834 4.272 92.8994 4.352C92.9154 4.432 92.8514 4.584 92.7074 4.808C92.5794 5.08 92.4274 5.352 92.2514 5.624C92.0914 5.896 91.9394 6.168 91.7954 6.44C91.5394 6.792 91.4914 6.992 91.6514 7.04C91.8114 7.088 92.2594 7.056 92.9954 6.944C93.4594 6.864 93.7954 6.888 94.0034 7.016C94.2114 7.128 94.3314 7.32 94.3634 7.592C94.4114 7.976 94.3714 8.208 94.2434 8.288C94.1154 8.368 93.7474 8.408 93.1394 8.408C92.7554 8.472 92.4274 8.512 92.1554 8.528C91.8834 8.528 91.6834 8.528 91.5554 8.528C91.3474 8.544 91.2114 8.552 91.1474 8.552C91.0834 8.552 90.9874 8.568 90.8594 8.6C90.7314 8.632 90.6354 8.688 90.5714 8.768C90.5234 8.832 90.4674 8.928 90.4034 9.056C90.3394 9.12 90.2434 9.288 90.1154 9.56C89.9874 9.832 89.8274 10.128 89.6354 10.448C89.4114 11.12 89.2194 11.792 89.0594 12.464C88.8994 13.12 88.7714 13.76 88.6754 14.384C88.6114 14.784 88.6194 15.064 88.6994 15.224C88.7794 15.368 88.9874 15.456 89.3234 15.488C89.4994 15.504 89.7794 15.504 90.1634 15.488C90.5634 15.456 90.8754 15.408 91.0994 15.344C91.2754 15.264 91.4594 15.184 91.6514 15.104C91.8434 15.008 92.0194 14.912 92.1794 14.816C92.3234 14.736 92.4674 14.656 92.6114 14.576C92.7554 14.48 92.8274 14.432 92.8274 14.432C92.9074 14.304 92.9954 14.264 93.0914 14.312C93.1874 14.36 93.2674 14.48 93.3314 14.672C93.3314 14.864 93.2914 15.064 93.2114 15.272C93.1314 15.48 92.8354 15.728 92.3234 16.016C91.6034 16.464 90.9394 16.736 90.3314 16.832C89.7394 16.912 89.2354 16.912 88.8194 16.832ZM97.1728 17.072C96.4688 17.072 95.8928 16.808 95.4448 16.28C94.9968 15.736 94.7808 15.064 94.7968 14.264C94.8288 13.688 94.9408 13.072 95.1328 12.416C95.3408 11.744 95.6128 11.104 95.9488 10.496C96.2848 9.872 96.6528 9.328 97.0528 8.864C97.4528 8.4 97.8688 8.072 98.3008 7.88C98.4608 7.8 98.6288 7.736 98.8047 7.688C98.9968 7.64 99.1888 7.616 99.3808 7.616C99.5568 7.616 99.7408 7.648 99.9328 7.712C100.125 7.76 100.285 7.816 100.413 7.88C100.685 7.992 100.893 8.128 101.037 8.288C101.181 8.448 101.309 8.696 101.421 9.032C101.469 9.336 101.493 9.552 101.493 9.68C101.493 9.808 101.453 10 101.373 10.256C101.181 10.832 100.933 11.328 100.629 11.744C100.325 12.16 99.9168 12.512 99.4048 12.8C99.2768 12.88 99.1248 12.944 98.9488 12.992C98.7888 13.024 98.6208 13.04 98.4448 13.04C98.1248 13.04 97.8128 12.984 97.5088 12.872C97.2208 12.744 96.9888 12.56 96.8128 12.32L96.6448 12.128L96.5728 12.32C96.4128 12.752 96.2848 13.152 96.1888 13.52C96.1088 13.888 96.0688 14.224 96.0688 14.528C96.0688 14.72 96.0848 14.904 96.1168 15.08C96.1648 15.256 96.2288 15.408 96.3088 15.536C96.3728 15.632 96.4768 15.704 96.6208 15.752C96.7808 15.784 96.9488 15.8 97.1248 15.8C97.2368 15.8 97.3488 15.8 97.4608 15.8C97.5888 15.784 97.7088 15.752 97.8208 15.704C98.0928 15.608 98.3088 15.504 98.4688 15.392C98.6448 15.28 98.8208 15.16 98.9968 15.032L99.0928 14.984H99.0688C99.2608 14.888 99.4288 14.792 99.5728 14.696C99.7328 14.6 99.8128 14.552 99.8128 14.552C99.8768 14.552 99.9408 14.512 100.005 14.432C100.133 14.368 100.293 14.392 100.485 14.504C100.693 14.616 100.797 14.76 100.797 14.936C100.781 15.016 100.709 15.144 100.581 15.32C100.453 15.48 100.309 15.632 100.149 15.776C100.005 15.92 99.8848 16 99.7888 16.016C99.7728 16.032 99.7168 16.064 99.6208 16.112C99.5248 16.144 99.4608 16.176 99.4288 16.208H99.4528C99.3088 16.4 99.1648 16.496 99.0208 16.496H98.8288C98.7648 16.608 98.5568 16.736 98.2048 16.88C97.8528 17.008 97.5088 17.072 97.1728 17.072ZM98.2528 11.792C98.5408 11.792 98.7888 11.712 98.9968 11.552C99.2208 11.376 99.4128 11.184 99.5728 10.976C99.8928 10.544 100.077 10.128 100.125 9.728C100.189 9.312 100.141 9.024 99.9808 8.864C99.8848 8.816 99.7968 8.792 99.7168 8.792C99.6528 8.776 99.5168 8.8 99.3088 8.864C99.1648 8.896 98.9648 9.016 98.7088 9.224C98.4528 9.432 98.1968 9.664 97.9408 9.92C97.7008 10.176 97.5168 10.392 97.3888 10.568L97.0768 11.072C97.2048 11.024 97.3248 11 97.4368 11C97.5648 10.984 97.6368 10.992 97.6528 11.024C97.6528 11.168 97.6768 11.304 97.7248 11.432C97.7888 11.544 97.8608 11.632 97.9408 11.696C98.0368 11.76 98.1408 11.792 98.2528 11.792ZM110.113 16.712C109.953 16.712 109.785 16.624 109.609 16.448C109.449 16.272 109.305 16.056 109.177 15.8C109.065 15.528 109.009 15.272 109.009 15.032C109.009 14.792 109.065 14.344 109.177 13.688C109.305 13.032 109.457 12.368 109.633 11.696C109.761 11.28 109.801 11.04 109.753 10.976C109.705 10.912 109.489 11 109.105 11.24C108.881 11.352 108.681 11.472 108.505 11.6C108.329 11.712 108.177 11.84 108.049 11.984C107.969 12.048 107.849 12.152 107.689 12.296C107.529 12.44 107.361 12.576 107.185 12.704C106.977 12.864 106.713 13.088 106.393 13.376C106.073 13.664 105.753 13.952 105.433 14.24C105.129 14.528 104.897 14.752 104.737 14.912C104.705 14.976 104.657 15.032 104.593 15.08C104.529 15.128 104.457 15.16 104.377 15.176C104.297 15.176 104.209 15.16 104.113 15.128C103.937 15.08 103.769 14.976 103.609 14.816C103.465 14.656 103.393 14.472 103.393 14.264C103.393 14.104 103.457 13.832 103.585 13.448C103.713 13.048 103.881 12.568 104.089 12.008C104.313 11.448 104.569 10.856 104.857 10.232C104.905 10.152 104.945 10.056 104.977 9.944C105.009 9.816 105.033 9.68 105.049 9.536C105.081 9.392 105.097 9.256 105.097 9.128C105.097 9.048 105.105 8.968 105.121 8.888C105.153 8.792 105.185 8.704 105.217 8.624C105.265 8.528 105.305 8.464 105.337 8.432C105.401 8.304 105.513 8.272 105.673 8.336C105.833 8.384 105.969 8.496 106.081 8.672C106.321 8.896 106.441 9.176 106.441 9.512C106.457 9.848 106.377 10.264 106.201 10.76C106.137 10.872 106.081 10.984 106.033 11.096C106.001 11.192 105.969 11.28 105.937 11.36C105.905 11.424 105.881 11.48 105.865 11.528C105.849 11.56 105.841 11.576 105.841 11.576C105.905 11.576 106.049 11.504 106.273 11.36C106.497 11.216 106.761 11.056 107.065 10.88C107.305 10.704 107.513 10.544 107.689 10.4C107.881 10.24 108.041 10.12 108.169 10.04C108.297 9.944 108.377 9.896 108.409 9.896C108.473 9.896 108.553 9.872 108.649 9.824C108.745 9.776 108.825 9.72 108.889 9.656C108.953 9.592 109.001 9.56 109.033 9.56C109.081 9.544 109.105 9.536 109.105 9.536C109.105 9.536 109.137 9.536 109.201 9.536C109.265 9.52 109.329 9.48 109.393 9.416C109.521 9.32 109.689 9.296 109.897 9.344C110.105 9.376 110.297 9.456 110.473 9.584C110.649 9.712 110.737 9.856 110.737 10.016C110.737 10.08 110.753 10.136 110.785 10.184C110.833 10.216 110.857 10.232 110.857 10.232C110.985 10.232 111.065 10.432 111.097 10.832C111.145 11.232 111.105 11.616 110.977 11.984C110.977 12.224 110.929 12.512 110.833 12.848C110.753 13.184 110.681 13.504 110.617 13.808C110.489 14.208 110.401 14.56 110.353 14.864C110.305 15.168 110.297 15.424 110.329 15.632C110.361 15.84 110.417 16.008 110.497 16.136C110.561 16.248 110.561 16.376 110.497 16.52C110.433 16.648 110.305 16.712 110.113 16.712ZM76.8905 38.488C76.7305 38.312 76.6265 38.16 76.5785 38.032C76.5305 37.92 76.5225 37.776 76.5545 37.6C76.6025 37.44 76.6665 37.208 76.7465 36.904C76.8745 36.392 77.0105 35.968 77.1545 35.632C77.3145 35.28 77.4665 34.92 77.6105 34.552C77.7705 34.168 77.9065 33.68 78.0185 33.088C78.2745 32.496 78.4985 31.936 78.6905 31.408C78.8985 30.88 79.0585 30.448 79.1705 30.112C79.2825 29.776 79.3385 29.608 79.3385 29.608C79.3545 29.544 79.4265 29.376 79.5545 29.104C79.6825 28.832 79.8425 28.504 80.0345 28.12C80.2425 27.72 80.4345 27.32 80.6105 26.92C80.8825 26.152 81.0985 25.496 81.2585 24.952C81.4345 24.392 81.6105 23.888 81.7865 23.44C81.9625 22.992 82.1945 22.552 82.4825 22.12C82.6745 21.784 82.8985 21.568 83.1545 21.472C83.4105 21.376 83.6505 21.384 83.8745 21.496C84.1145 21.592 84.2825 21.8 84.3785 22.12C84.4585 22.28 84.5225 22.472 84.5705 22.696C84.6345 22.92 84.6905 23.248 84.7385 23.68C84.7865 24.096 84.8185 24.688 84.8345 25.456C84.8665 26.368 84.8745 27.272 84.8585 28.168C84.8425 29.048 84.8425 29.864 84.8585 30.616C84.8905 31.368 84.9785 32.008 85.1225 32.536C85.1705 32.824 85.2345 33.176 85.3145 33.592C85.4105 33.992 85.5065 34.392 85.6025 34.792C85.7145 35.192 85.8185 35.528 85.9145 35.8C86.0265 36.072 86.1145 36.208 86.1785 36.208C86.2585 36.208 86.3625 36.104 86.4905 35.896C86.6345 35.688 86.8105 35.312 87.0185 34.768C87.2425 34.224 87.5065 33.456 87.8105 32.464C88.1145 31.456 88.4585 30.168 88.8425 28.6C88.9225 28.328 89.0265 27.888 89.1545 27.28C89.2985 26.672 89.4025 26.056 89.4665 25.432C89.5785 25.032 89.6905 24.592 89.8025 24.112C89.9145 23.632 90.0105 23.208 90.0905 22.84C90.1865 22.472 90.2345 22.264 90.2345 22.216C90.2345 22.104 90.2345 22.008 90.2345 21.928C90.2505 21.848 90.2505 21.768 90.2345 21.688C90.3145 21.688 90.3865 21.584 90.4505 21.376C90.5145 21.152 90.5465 20.96 90.5465 20.8C90.5465 20.528 90.5785 20.312 90.6425 20.152C90.7225 19.976 90.8025 19.848 90.8825 19.768C90.9305 19.64 91.0505 19.584 91.2425 19.6C91.4345 19.6 91.6265 19.648 91.8185 19.744C92.0105 19.84 92.1305 19.968 92.1785 20.128C92.2105 20.304 92.1625 20.704 92.0345 21.328C91.9225 21.936 91.7465 22.76 91.5065 23.8C91.5065 23.976 91.4585 24.264 91.3625 24.664C91.2665 25.064 91.1625 25.488 91.0505 25.936C90.9545 26.384 90.8825 26.768 90.8345 27.088C90.7705 27.504 90.6985 27.896 90.6185 28.264C90.5385 28.616 90.4585 28.784 90.3785 28.768C89.9625 30.576 89.5225 32.12 89.0585 33.4C88.6105 34.664 88.2105 35.696 87.8585 36.496C87.4745 37.376 87.0505 37.904 86.5865 38.08C86.1385 38.272 85.6585 38.04 85.1465 37.384C84.8425 36.968 84.6025 36.56 84.4265 36.16C84.2505 35.744 84.1065 35.264 83.9945 34.72C83.8825 34.16 83.7465 33.472 83.5865 32.656C83.3465 32 83.2105 31.336 83.1785 30.664C83.1625 29.992 83.1865 29.304 83.2505 28.6C83.3145 27.88 83.3625 27.136 83.3945 26.368C83.3785 25.6 83.3465 25.088 83.2985 24.832C83.2505 24.576 83.1545 24.592 83.0105 24.88C82.8825 25.152 82.6665 25.712 82.3625 26.56C82.2505 26.864 82.0985 27.232 81.9065 27.664C81.7305 28.096 81.5545 28.528 81.3785 28.96C81.2025 29.376 81.0505 29.744 80.9225 30.064C80.7945 30.368 80.7145 30.56 80.6825 30.64C80.5865 30.832 80.4745 31.088 80.3465 31.408C80.2185 31.712 80.1145 32.04 80.0345 32.392C79.4585 33.896 79.0265 35.096 78.7385 35.992C78.4665 36.888 78.2665 37.512 78.1385 37.864C77.9785 38.312 77.8105 38.608 77.6345 38.752C77.4585 38.912 77.2105 38.824 76.8905 38.488ZM92.9857 36.64C92.7777 36.64 92.6097 36.6 92.4817 36.52C92.3697 36.44 92.2257 36.328 92.0497 36.184C91.7457 35.864 91.5297 35.56 91.4017 35.272C91.2737 34.968 91.2337 34.68 91.2817 34.408C91.3297 34.28 91.3457 34.16 91.3297 34.048C91.3297 33.92 91.3297 33.856 91.3297 33.856C91.2497 33.776 91.2257 33.728 91.2577 33.712C91.2897 33.68 91.3217 33.632 91.3537 33.568C91.4497 33.568 91.4817 33.48 91.4497 33.304C91.4177 33.176 91.4817 32.896 91.6417 32.464C91.8017 32.032 92.0017 31.624 92.2417 31.24C92.3377 31.08 92.4817 30.872 92.6737 30.616C92.8657 30.344 93.0737 30.08 93.2977 29.824C93.5377 29.552 93.7537 29.336 93.9457 29.176C94.3457 28.84 94.6977 28.592 95.0017 28.432C95.3057 28.272 95.6337 28.152 95.9857 28.072C96.3377 27.992 96.5777 27.952 96.7057 27.952C96.8497 27.952 97.0417 28.08 97.2817 28.336C97.6497 28.496 97.9137 28.688 98.0737 28.912C98.2497 29.136 98.3617 29.464 98.4097 29.896C98.4577 30.376 98.4177 30.928 98.2897 31.552C98.1777 32.16 97.8017 32.92 97.1617 33.832C96.7617 34.408 96.3937 34.84 96.0577 35.128C95.7217 35.4 95.3217 35.672 94.8577 35.944C94.5217 36.168 94.2177 36.336 93.9457 36.448C93.6737 36.544 93.3537 36.608 92.9857 36.64ZM95.2897 34.096C95.6737 33.664 95.9777 33.256 96.2017 32.872C96.4417 32.488 96.6657 32 96.8737 31.408C96.9377 31.232 96.9777 31.016 96.9937 30.76C97.0097 30.488 97.0017 30.24 96.9697 30.016C96.9537 29.776 96.8977 29.64 96.8017 29.608C96.6097 29.496 96.3777 29.464 96.1057 29.512C95.8337 29.544 95.5377 29.696 95.2177 29.968C94.7217 30.384 94.2897 30.904 93.9217 31.528C93.5537 32.136 93.1937 32.832 92.8417 33.616C92.6017 34.192 92.5457 34.656 92.6737 35.008C92.8177 35.344 93.1137 35.464 93.5617 35.368C94.0257 35.256 94.6017 34.832 95.2897 34.096ZM101.687 36.832C101.511 36.8 101.327 36.712 101.135 36.568C100.959 36.408 100.799 36.232 100.655 36.04C100.527 35.832 100.439 35.648 100.391 35.488C100.391 35.456 100.367 35.416 100.319 35.368C100.287 35.32 100.271 35.296 100.271 35.296C100.207 35.248 100.167 35.04 100.151 34.672C100.151 34.288 100.175 33.864 100.223 33.4C100.271 32.936 100.327 32.568 100.391 32.296C100.471 32.04 100.591 31.696 100.751 31.264C100.911 30.816 101.047 30.416 101.159 30.064L101.807 28.672L100.847 28.408C100.735 28.376 100.639 28.312 100.559 28.216C100.495 28.12 100.463 28.04 100.463 27.976C100.463 27.848 100.535 27.696 100.679 27.52C100.823 27.328 100.927 27.232 100.991 27.232C101.071 27.248 101.215 27.256 101.423 27.256C101.647 27.256 101.863 27.248 102.071 27.232C102.279 27.216 102.407 27.2 102.455 27.184C102.519 27.152 102.583 27.112 102.647 27.064C102.711 27 102.759 26.912 102.791 26.8C102.871 26.624 102.943 26.464 103.007 26.32C103.071 26.16 103.159 25.984 103.271 25.792C103.383 25.584 103.471 25.408 103.535 25.264C103.615 25.12 103.735 24.92 103.895 24.664C103.975 24.552 104.063 24.416 104.159 24.256C104.255 24.096 104.375 23.96 104.519 23.848C104.663 23.72 104.807 23.664 104.951 23.68C105.111 23.68 105.311 23.784 105.551 23.992C105.679 24.152 105.751 24.272 105.767 24.352C105.783 24.432 105.719 24.584 105.575 24.808C105.447 25.08 105.295 25.352 105.119 25.624C104.959 25.896 104.807 26.168 104.663 26.44C104.407 26.792 104.359 26.992 104.519 27.04C104.679 27.088 105.127 27.056 105.863 26.944C106.327 26.864 106.663 26.888 106.871 27.016C107.079 27.128 107.199 27.32 107.231 27.592C107.279 27.976 107.239 28.208 107.111 28.288C106.983 28.368 106.615 28.408 106.007 28.408C105.623 28.472 105.295 28.512 105.023 28.528C104.751 28.528 104.551 28.528 104.423 28.528C104.215 28.544 104.079 28.552 104.015 28.552C103.951 28.552 103.855 28.568 103.727 28.6C103.599 28.632 103.503 28.688 103.439 28.768C103.391 28.832 103.335 28.928 103.271 29.056C103.207 29.12 103.111 29.288 102.983 29.56C102.855 29.832 102.695 30.128 102.503 30.448C102.279 31.12 102.087 31.792 101.927 32.464C101.767 33.12 101.639 33.76 101.543 34.384C101.479 34.784 101.487 35.064 101.567 35.224C101.647 35.368 101.855 35.456 102.191 35.488C102.367 35.504 102.647 35.504 103.031 35.488C103.431 35.456 103.743 35.408 103.967 35.344C104.143 35.264 104.327 35.184 104.519 35.104C104.711 35.008 104.887 34.912 105.047 34.816C105.191 34.736 105.335 34.656 105.479 34.576C105.623 34.48 105.695 34.432 105.695 34.432C105.775 34.304 105.863 34.264 105.959 34.312C106.055 34.36 106.135 34.48 106.199 34.672C106.199 34.864 106.159 35.064 106.079 35.272C105.999 35.48 105.703 35.728 105.191 36.016C104.471 36.464 103.807 36.736 103.199 36.832C102.607 36.912 102.103 36.912 101.687 36.832ZM110.04 37.072C109.336 37.072 108.76 36.808 108.312 36.28C107.864 35.736 107.648 35.064 107.664 34.264C107.696 33.688 107.808 33.072 108 32.416C108.208 31.744 108.48 31.104 108.816 30.496C109.152 29.872 109.52 29.328 109.92 28.864C110.32 28.4 110.736 28.072 111.168 27.88C111.328 27.8 111.496 27.736 111.672 27.688C111.864 27.64 112.056 27.616 112.248 27.616C112.424 27.616 112.608 27.648 112.8 27.712C112.992 27.76 113.152 27.816 113.28 27.88C113.552 27.992 113.76 28.128 113.904 28.288C114.048 28.448 114.176 28.696 114.288 29.032C114.336 29.336 114.36 29.552 114.36 29.68C114.36 29.808 114.32 30 114.24 30.256C114.048 30.832 113.8 31.328 113.496 31.744C113.192 32.16 112.784 32.512 112.272 32.8C112.144 32.88 111.992 32.944 111.816 32.992C111.656 33.024 111.488 33.04 111.312 33.04C110.992 33.04 110.68 32.984 110.376 32.872C110.088 32.744 109.856 32.56 109.68 32.32L109.512 32.128L109.44 32.32C109.28 32.752 109.152 33.152 109.056 33.52C108.976 33.888 108.936 34.224 108.936 34.528C108.936 34.72 108.952 34.904 108.984 35.08C109.032 35.256 109.096 35.408 109.176 35.536C109.24 35.632 109.344 35.704 109.488 35.752C109.648 35.784 109.816 35.8 109.992 35.8C110.104 35.8 110.216 35.8 110.328 35.8C110.456 35.784 110.576 35.752 110.688 35.704C110.96 35.608 111.176 35.504 111.336 35.392C111.512 35.28 111.688 35.16 111.864 35.032L111.96 34.984H111.936C112.128 34.888 112.296 34.792 112.44 34.696C112.6 34.6 112.68 34.552 112.68 34.552C112.744 34.552 112.808 34.512 112.872 34.432C113 34.368 113.16 34.392 113.352 34.504C113.56 34.616 113.664 34.76 113.664 34.936C113.648 35.016 113.576 35.144 113.448 35.32C113.32 35.48 113.176 35.632 113.016 35.776C112.872 35.92 112.752 36 112.656 36.016C112.64 36.032 112.584 36.064 112.488 36.112C112.392 36.144 112.328 36.176 112.296 36.208H112.32C112.176 36.4 112.032 36.496 111.888 36.496H111.696C111.632 36.608 111.424 36.736 111.072 36.88C110.72 37.008 110.376 37.072 110.04 37.072ZM111.12 31.792C111.408 31.792 111.656 31.712 111.864 31.552C112.088 31.376 112.28 31.184 112.44 30.976C112.76 30.544 112.944 30.128 112.992 29.728C113.056 29.312 113.008 29.024 112.848 28.864C112.752 28.816 112.664 28.792 112.584 28.792C112.52 28.776 112.384 28.8 112.176 28.864C112.032 28.896 111.832 29.016 111.576 29.224C111.32 29.432 111.064 29.664 110.808 29.92C110.568 30.176 110.384 30.392 110.256 30.568L109.944 31.072C110.072 31.024 110.192 31 110.304 31C110.432 30.984 110.504 30.992 110.52 31.024C110.52 31.168 110.544 31.304 110.592 31.432C110.656 31.544 110.728 31.632 110.808 31.696C110.904 31.76 111.008 31.792 111.12 31.792ZM117.821 36.784C117.421 36.816 117.037 36.792 116.669 36.712C116.317 36.632 116.013 36.496 115.757 36.304C115.517 36.096 115.349 35.848 115.253 35.56C115.141 35.336 115.085 35.184 115.085 35.104C115.085 35.008 115.141 34.928 115.253 34.864C115.381 34.864 115.493 34.904 115.589 34.984C115.701 35.048 115.845 35.12 116.021 35.2C116.261 35.408 116.549 35.52 116.885 35.536C117.237 35.552 117.557 35.496 117.845 35.368C118.133 35.24 118.293 35.08 118.325 34.888C118.325 34.824 118.301 34.712 118.253 34.552C118.205 34.392 118.149 34.224 118.085 34.048C117.653 33.44 117.333 32.84 117.125 32.248C116.933 31.64 116.837 31.144 116.837 30.76C116.837 30.472 116.925 30.168 117.101 29.848C117.277 29.512 117.517 29.232 117.821 29.008C118.109 28.704 118.429 28.432 118.781 28.192C119.133 27.952 119.485 27.744 119.837 27.568C120.205 27.392 120.533 27.264 120.821 27.184C120.997 27.184 121.229 27.208 121.517 27.256C121.805 27.304 122.005 27.36 122.117 27.424C122.293 27.488 122.461 27.664 122.621 27.952C122.781 28.224 122.861 28.496 122.861 28.768C122.861 28.88 122.829 29.024 122.765 29.2C122.701 29.376 122.597 29.584 122.453 29.824C122.389 30 122.317 30.168 122.237 30.328C122.157 30.472 122.117 30.576 122.117 30.64C122.037 30.816 121.925 30.904 121.781 30.904C121.653 30.888 121.517 30.816 121.373 30.688C121.245 30.544 121.141 30.376 121.061 30.184C120.997 29.944 120.973 29.752 120.989 29.608C121.005 29.448 121.069 29.28 121.181 29.104C121.357 28.928 121.445 28.808 121.445 28.744C121.445 28.68 121.357 28.648 121.181 28.648C121.069 28.648 120.861 28.72 120.557 28.864C120.269 28.992 119.957 29.168 119.621 29.392C119.301 29.6 119.021 29.824 118.781 30.064C118.477 30.352 118.293 30.56 118.229 30.688C118.181 30.816 118.157 31.016 118.157 31.288C118.157 31.512 118.205 31.792 118.301 32.128C118.413 32.464 118.525 32.688 118.637 32.8C118.637 32.8 118.693 32.912 118.805 33.136C118.917 33.344 119.053 33.568 119.213 33.808C119.677 34.832 119.797 35.568 119.573 36.016C119.349 36.464 118.765 36.72 117.821 36.784ZM124.992 35.752C124.688 35.864 124.432 35.92 124.224 35.92C124.032 35.904 123.816 35.808 123.576 35.632C123.272 35.344 123.168 35.056 123.264 34.768C123.376 34.464 123.64 34.168 124.056 33.88C124.344 33.704 124.552 33.608 124.68 33.592C124.824 33.576 125.04 33.632 125.328 33.76C125.808 34.064 126.016 34.4 125.952 34.768C125.904 35.136 125.584 35.464 124.992 35.752Z" fill="#3D3D3D"/>
</svg>
