<svg width="36" height="34" viewBox="0 0 36 34" fill="none" xmlns="http://www.w3.org/2000/svg">
<path d="M33.6795 2.79656C32.9847 2.14331 32.0892 1.71415 31.1207 1.5704C30.1522 1.42665 29.1604 1.57566 28.287 1.99614C28.2375 1.92956 27.7755 1.44789 27.594 1.27506C26.729 0.460053 25.5571 0.00234985 24.3352 0.00234985C23.1134 0.00234985 21.9415 0.460053 21.0765 1.27506L12.8715 9.02422C12.5903 9.28989 12.4323 9.65016 12.4323 10.0258C12.4323 10.4015 12.5903 10.7617 12.8715 11.0274C13.1551 11.2889 13.5357 11.4353 13.932 11.4353C14.3283 11.4353 14.7089 11.2889 14.9925 11.0274L23.1975 3.27822C23.4993 2.99335 23.9085 2.83332 24.3352 2.83332C24.7619 2.83332 25.1712 2.99335 25.473 3.27822L26.022 3.79814L22.6845 6.94881C22.5389 7.08688 22.4571 7.27383 22.4571 7.46872C22.4571 7.66362 22.5389 7.85057 22.6845 7.98864L28.1835 13.1751C28.3292 13.3124 28.5266 13.3896 28.7325 13.3896C28.9384 13.3896 29.1358 13.3124 29.2815 13.1751L33.6795 9.02139C34.5528 8.19556 35.0433 7.07613 35.0433 5.90897C35.0433 4.74182 34.5528 3.62238 33.6795 2.79656Z" fill="#8F8E8E"/>
<path d="M21.0345 9.5455C20.8886 9.40804 20.6909 9.33084 20.4848 9.33084C20.2786 9.33084 20.0809 9.40804 19.935 9.5455L7.5945 21.2032C7.37753 21.4077 7.20539 21.6506 7.08794 21.918C6.97049 22.1854 6.91003 22.4721 6.91003 22.7616C6.91003 23.0511 6.97049 23.3377 7.08794 23.6051C7.20539 23.8725 7.37753 24.1154 7.5945 24.3199L10.8945 27.4366C11.111 27.6415 11.3682 27.8041 11.6513 27.915C11.9345 28.0259 12.238 28.083 12.5445 28.083C12.851 28.083 13.1545 28.0259 13.4377 27.915C13.7208 27.8041 13.978 27.6415 14.1945 27.4366L26.5365 15.7803C26.6821 15.6424 26.7638 15.4557 26.7638 15.261C26.7638 15.0664 26.6821 14.8797 26.5365 14.7418L21.0345 9.5455Z" fill="#8F8E8E"/>
<path d="M5.15101 25.1614C5.06181 25.077 4.95148 25.0152 4.83027 24.9818C4.70905 24.9484 4.58087 24.9445 4.4576 24.9703C4.33433 24.9962 4.21997 25.051 4.12512 25.1297C4.03027 25.2085 3.958 25.3085 3.91501 25.4207L0.997512 33.0508C0.949299 33.1773 0.9402 33.3142 0.971277 33.4454C1.00235 33.5766 1.07232 33.6967 1.17301 33.7917C1.27468 33.8858 1.40206 33.9512 1.54088 33.9807C1.6797 34.0103 1.82448 34.0027 1.95901 33.9589L10.038 31.2049C10.1567 31.1643 10.2627 31.096 10.346 31.0065C10.4294 30.9169 10.4874 30.8089 10.5148 30.6925C10.5422 30.576 10.538 30.455 10.5026 30.3405C10.4673 30.226 10.4019 30.1218 10.3125 30.0376L5.15101 25.1614Z" fill="#8F8E8E"/>
</svg>
